<svg width="1200" height="1200" viewBox="0 0 1200 1200" fill="none" xmlns="http://www.w3.org/2000/svg">
<g clip-path="url(#clip0_653_414)">
<mask id="mask0_653_414" style="mask-type:luminance" maskUnits="userSpaceOnUse" x="0" y="0" width="1200" height="1200">
<path d="M1200 0H0V1200H1200V0Z" fill="white"/>
</mask>
<g mask="url(#mask0_653_414)">
<mask id="mask1_653_414" style="mask-type:luminance" maskUnits="userSpaceOnUse" x="0" y="0" width="1200" height="1200">
<path d="M0 0H1200V1200H0V0Z" fill="white"/>
</mask>
<g mask="url(#mask1_653_414)">
<g opacity="0.3">
<path d="M301.28 313.624L288.816 398.452L411.673 398.492L392.853 313.583L301.28 313.624Z" fill="#FFDE6F"/>
</g>
<path d="M347.067 204.325V273.994" stroke="#1A1A1A" stroke-width="1.17565" stroke-linecap="round" stroke-linejoin="round"/>
<path d="M350.428 280.916H343.707C340.467 280.916 337.842 278.291 337.842 275.052V274.38C337.842 271.142 340.467 268.515 343.707 268.515H350.428C353.667 268.515 356.292 271.142 356.292 274.38V275.052C356.292 278.291 353.667 280.916 350.428 280.916Z" fill="#339E7D"/>
<path d="M350.368 279.38H343.766C322.936 279.38 305.531 294.028 301.28 313.584H392.854C388.603 294.028 371.197 279.38 350.368 279.38Z" fill="url(#paint0_linear_653_414)"/>
<g opacity="0.01">
<path d="M429.563 227.245L428.704 232.248L484.07 232.461L482.741 227.245H429.563Z" fill="#FFDE6F"/>
</g>
<path d="M456.153 155.579V204.254" stroke="#1A1A1A" stroke-width="0.861847" stroke-linecap="round" stroke-linejoin="round"/>
<path d="M458.104 208.274H454.201C452.32 208.274 450.795 206.749 450.795 204.868V204.479C450.795 202.598 452.32 201.073 454.201 201.073H458.104C459.986 201.073 461.51 202.598 461.51 204.479V204.868C461.51 206.749 459.986 208.274 458.104 208.274Z" fill="#339E7D"/>
<path d="M458.07 207.382H454.236C442.14 207.382 432.032 215.888 429.564 227.245H482.741C480.273 215.888 470.166 207.382 458.07 207.382Z" fill="url(#paint1_linear_653_414)"/>
<path d="M788.613 501.7H573.243C568.006 501.7 563.761 497.455 563.761 492.218V211.898C563.761 206.66 568.006 202.416 573.243 202.416H788.613C793.85 202.416 798.095 206.66 798.095 211.898V492.218C798.095 497.455 793.85 501.7 788.613 501.7Z" fill="url(#paint2_linear_653_414)"/>
<path d="M811.167 214.59H550.689V195.516H811.167V214.59Z" fill="url(#paint3_linear_653_414)"/>
<path d="M798.096 243.304H563.762V235.39H798.096V243.304Z" fill="white"/>
<path d="M798.096 265.728H563.762V257.814H798.096V265.728Z" fill="white"/>
<path d="M798.096 288.15H563.762V280.236H798.096V288.15Z" fill="white"/>
<path d="M798.096 310.574H563.762V302.66H798.096V310.574Z" fill="white"/>
<path d="M798.096 332.997H563.762V325.083H798.096V332.997Z" fill="white"/>
<path d="M219.354 968.49C183.761 920.294 195.181 852.667 240.966 820.295C282.955 790.607 343.872 797.625 379.898 838.82C395.333 802.428 411.182 792.764 423.122 790.966C457.447 785.793 472.275 843.69 525.005 851.17C562.226 856.449 578.507 830.958 612.995 841.908C636.919 849.503 652.058 869.061 660.85 883.587C666.828 840.275 704.149 807.856 747.297 807.946C791.45 808.039 829.199 842.151 833.743 886.675C835.525 885.546 863.745 868.318 892.403 882.044C916.246 893.463 930.012 921.335 924.821 949.966C689.665 956.14 454.51 962.315 219.354 968.49Z" fill="url(#paint4_linear_653_414)"/>
<path d="M977.257 973.552C1101.91 915.589 775.942 896.942 745.237 919.716C662.119 916.617 494.797 902.918 447.743 922.881C316.852 917.78 162.574 946.012 168.846 979.45C158.811 1029.72 450.87 1051.96 548.667 1034.32C625.777 1045.92 737.931 1043.29 807.203 1026.8C831.422 1036.54 871.635 1043.08 917.19 1043.4C1038.31 1047.07 1114.78 995.435 977.257 973.552Z" fill="url(#paint5_linear_653_414)"/>
<path d="M256.218 944.82V962.314H273.384L275.956 944.82H256.218Z" fill="#1A1A1A"/>
<path d="M405.514 944.82V962.314H388.349L385.776 944.82H405.514Z" fill="#1A1A1A"/>
<path d="M429.698 949.721H240.966V735.925H429.698V949.721Z" fill="white"/>
<path d="M397.047 790.579H273.617C264.008 790.579 256.218 782.789 256.218 773.18V771.186C256.218 761.577 264.008 753.787 273.617 753.787H397.047C406.656 753.787 414.446 761.577 414.446 771.186V773.18C414.446 782.789 406.656 790.579 397.047 790.579Z" fill="#6484C5"/>
<path d="M397.047 838.433H273.617C264.008 838.433 256.218 830.643 256.218 821.034V819.04C256.218 809.431 264.008 801.641 273.617 801.641H397.047C406.656 801.641 414.446 809.431 414.446 819.04V821.034C414.446 830.643 406.656 838.433 397.047 838.433Z" stroke="#6484C5" stroke-width="1.5" stroke-miterlimit="10"/>
<path d="M394.641 922.853H276.023C265.085 922.853 256.217 913.986 256.217 903.047V868.402C256.217 857.463 265.085 848.595 276.023 848.595H394.641C405.579 848.595 414.447 857.463 414.447 868.402V903.047C414.447 913.986 405.579 922.853 394.641 922.853Z" stroke="#6484C5" stroke-width="1.5" stroke-miterlimit="10"/>
<path d="M341.649 762.579C341.649 764.806 339.844 766.61 337.618 766.61C335.392 766.61 333.587 764.806 333.587 762.579C333.587 760.353 335.392 758.548 337.618 758.548C339.844 758.548 341.649 760.353 341.649 762.579Z" fill="#1A1A1A"/>
<path d="M430.092 738.865H240.572C238.556 738.865 236.922 737.231 236.922 735.215V734.798C236.922 732.782 238.556 731.147 240.572 731.147H430.092C432.108 731.147 433.742 732.782 433.742 734.798V735.215C433.742 737.231 432.108 738.865 430.092 738.865Z" fill="#FFB013"/>
<path d="M271.824 682.008C271.824 682.008 272.263 617.934 197.516 618.954" stroke="#1A1A1A" stroke-width="1.5" stroke-linecap="round" stroke-linejoin="round"/>
<path d="M246.928 612.486C245.407 619.137 238.35 623.202 231.172 621.552C238.35 623.202 242.93 629.933 241.404 636.587C239.88 643.245 232.822 647.305 225.647 645.661C223.038 645.06 218.923 640.977 217.168 639.28C219.138 642.06 221.816 648.337 221.027 651.771C219.744 657.385 214.548 661.174 208.648 661.289C207.495 661.309 206.319 661.194 205.137 660.923C203.954 660.652 202.846 660.242 201.817 659.72C197.575 657.566 194.788 653.468 194.542 649.018C192.376 652.915 188.085 655.389 183.331 655.479C182.179 655.498 181.004 655.383 179.821 655.112C178.639 654.841 177.53 654.432 176.501 653.91C171.237 651.238 168.215 645.568 169.499 639.955C170.285 636.516 176.408 632.08 179.387 630.434C177.075 631.193 170.615 633.035 168.002 632.437C160.826 630.792 156.246 624.061 157.77 617.404C159.296 610.75 166.352 606.685 173.529 608.333C166.352 606.685 161.767 599.954 163.292 593.302C164.816 586.643 171.874 582.583 179.051 584.227C181.664 584.826 185.252 587.341 187.007 589.033C185.037 586.254 182.882 581.55 183.67 578.117C184.959 572.501 190.151 568.713 196.05 568.6C197.202 568.579 198.377 568.695 199.56 568.966C200.742 569.237 201.851 569.646 202.88 570.168C207.121 572.322 209.91 576.42 210.162 580.867C212.321 576.972 216.617 574.498 221.371 574.408C222.523 574.388 223.699 574.504 224.881 574.775C226.064 575.046 227.172 575.455 228.201 575.976C233.459 578.65 236.488 584.318 235.199 589.933C234.413 593.372 230.28 596.598 227.3 598.244C229.618 597.484 234.086 596.851 236.695 597.451C243.871 599.095 248.458 605.825 246.928 612.486Z" fill="#339E7D"/>
<path d="M173.527 608.332C182.702 614.33 192.231 617.229 202.349 614.944C195.764 624.179 194.24 636.113 194.54 649.019" stroke="#1A1A1A" stroke-width="1.5" stroke-linecap="round" stroke-linejoin="round"/>
<path d="M210.158 580.867C211.169 594.648 208.425 605.912 202.349 614.944C210.006 619.786 220.172 621.234 231.171 621.554" stroke="#1A1A1A" stroke-width="1.5" stroke-linecap="round" stroke-linejoin="round"/>
<path d="M291.631 543.015C291.631 543.015 275.08 633.457 288.879 700.5" stroke="#1A1A1A" stroke-width="1.5" stroke-linecap="round" stroke-linejoin="round"/>
<path d="M299.067 563.674C292.919 562.543 288.919 556.242 290.147 549.604C288.919 556.242 282.937 560.701 276.786 559.565C270.63 558.432 266.637 552.128 267.86 545.491C268.307 543.079 271.883 539.15 273.367 537.475C270.901 539.389 265.258 542.086 262.084 541.5C256.895 540.545 253.221 535.937 252.886 530.539C252.822 529.484 252.881 528.402 253.082 527.308C253.284 526.214 253.615 525.184 254.053 524.221C255.858 520.253 259.5 517.537 263.563 517.136C259.912 515.307 257.478 511.474 257.209 507.125C257.146 506.07 257.205 504.99 257.407 503.897C257.608 502.803 257.94 501.77 258.377 500.808C260.617 495.883 265.688 492.892 270.878 493.846C274.056 494.431 278.359 499.863 279.982 502.527C279.196 500.438 277.255 494.597 277.702 492.18C278.925 485.543 284.907 481.083 291.062 482.218C297.213 483.353 301.212 489.656 299.984 496.294C301.212 489.656 307.193 485.193 313.344 486.327C319.499 487.462 323.493 493.765 322.27 500.4C321.825 502.818 319.662 506.203 318.184 507.877C320.65 505.963 324.872 503.805 328.046 504.391C333.237 505.35 336.909 509.956 337.245 515.354C337.308 516.408 337.249 517.491 337.048 518.584C336.846 519.678 336.515 520.71 336.077 521.672C334.272 525.641 330.63 528.356 326.568 528.762C330.219 530.585 332.653 534.422 332.922 538.772C332.986 539.827 332.927 540.907 332.725 542C332.523 543.094 332.192 544.126 331.754 545.089C329.513 550.01 324.444 553.006 319.253 552.047C316.074 551.462 312.958 547.804 311.333 545.141C312.122 547.233 312.875 551.3 312.429 553.712C311.205 560.349 305.224 564.812 299.067 563.674Z" fill="#339E7D"/>
<path d="M299.986 496.292C294.855 504.931 292.574 513.771 295.065 522.947C286.35 517.28 275.366 516.353 263.562 517.136" stroke="#1A1A1A" stroke-width="1.5" stroke-linecap="round" stroke-linejoin="round"/>
<path d="M326.568 528.759C313.991 530.226 303.571 528.157 295.066 522.947C290.932 530.15 290.007 539.517 290.145 549.603" stroke="#1A1A1A" stroke-width="1.5" stroke-linecap="round" stroke-linejoin="round"/>
<path d="M334.415 597.672C334.415 597.672 289.11 638.989 295.871 688.963" stroke="#1A1A1A" stroke-width="1.5" stroke-linecap="round" stroke-linejoin="round"/>
<path d="M305.135 613.304C309.599 616.961 316.424 616.02 320.369 611.195C316.424 616.02 316.852 622.893 321.322 626.55C325.794 630.21 332.617 629.262 336.562 624.442C337.995 622.688 338.629 617.826 338.924 615.781C339.046 618.659 340.512 624.245 342.818 626.131C346.587 629.217 352.027 629.056 356.03 626.072C356.811 625.488 357.537 624.802 358.188 624.007C358.837 623.213 359.366 622.364 359.784 621.482C361.502 617.841 361.241 613.656 359.1 610.555C362.568 612.037 366.718 611.464 369.944 609.059C370.724 608.474 371.451 607.788 372.101 606.994C372.75 606.199 373.281 605.349 373.698 604.467C375.831 599.951 374.913 594.593 371.144 591.507C368.835 589.616 362.441 589.827 359.596 590.272C361.537 589.58 366.81 587.461 368.247 585.705C372.193 580.884 371.765 574.009 367.293 570.349C362.823 566.693 355.999 567.637 352.055 572.461C355.999 567.637 355.574 560.76 351.104 557.105C346.634 553.444 339.811 554.39 335.865 559.21C334.429 560.966 333.334 564.509 333.038 566.55C332.914 563.671 331.915 559.409 329.609 557.523C325.835 554.437 320.401 554.598 316.398 557.58C315.616 558.165 314.89 558.852 314.24 559.646C313.59 560.441 313.06 561.291 312.644 562.173C310.924 565.812 311.186 569.998 313.322 573.102C309.86 571.617 305.705 572.192 302.479 574.597C301.699 575.181 300.972 575.868 300.323 576.662C299.672 577.457 299.143 578.305 298.726 579.187C296.597 583.702 297.511 589.062 301.284 592.147C303.592 594.037 308.028 594.049 310.874 593.605C308.929 594.298 305.614 596.195 304.181 597.948C300.235 602.77 300.659 609.646 305.135 613.304Z" fill="#127754"/>
<path d="M352.056 572.46C349.031 581.228 344.164 588.108 336.214 591.828C345.405 594.587 352.611 601.772 359.102 610.554" stroke="white" stroke-width="1.5" stroke-linecap="round" stroke-linejoin="round"/>
<path d="M313.324 573.1C319.793 582.835 327.468 588.942 336.213 591.827C333.605 599.035 327.558 605.275 320.37 611.195" stroke="white" stroke-width="1.5" stroke-linecap="round" stroke-linejoin="round"/>
<path d="M309.99 697.181C309.99 710.243 307.377 722.149 303.089 731.146H263.118C258.827 722.149 256.218 710.243 256.218 697.181C256.218 690.154 256.972 683.463 258.34 677.378H307.867C309.236 683.463 309.99 690.154 309.99 697.181Z" fill="#DBD2DB"/>
<path d="M309.99 697.181C309.99 710.243 307.377 722.149 303.089 731.146H281.76C296.788 707.297 296.384 688.606 293.59 677.378H307.867C309.236 683.463 309.99 690.154 309.99 697.181Z" fill="#142A52"/>
<path d="M912.99 735.924C900.402 735.924 889.604 743.587 885.006 754.503C881.037 753.123 876.774 752.372 872.335 752.372C851.021 752.372 833.743 769.652 833.743 790.965C833.743 812.279 851.021 829.558 872.335 829.558C891.761 829.558 907.831 815.205 910.527 796.527C911.341 796.592 912.16 796.634 912.99 796.634C929.755 796.634 943.345 783.043 943.345 766.279C943.345 749.515 929.755 735.924 912.99 735.924Z" fill="url(#paint6_linear_653_414)"/>
<path d="M209.457 812.782C209.457 829.374 196.006 842.823 179.414 842.823C162.823 842.823 149.373 829.374 149.373 812.782C149.373 796.191 162.823 782.741 179.414 782.741C196.006 782.741 209.457 796.191 209.457 812.782Z" fill="url(#paint7_linear_653_414)"/>
<g opacity="0.5">
<path d="M904.285 950.222C904.285 960.314 856.024 968.495 796.493 968.495C736.961 968.495 688.701 960.314 688.701 950.222C688.701 940.129 736.961 931.948 796.493 931.948C856.024 931.948 904.285 940.129 904.285 950.222Z" fill="#142A52"/>
<path d="M719.509 986.977C719.509 1002.78 643.926 1015.6 550.689 1015.6C457.452 1015.6 381.868 1002.78 381.868 986.977C381.868 971.171 457.452 958.358 550.689 958.358C643.926 958.358 719.509 971.171 719.509 986.977Z" fill="#142A52"/>
</g>
</g>
<mask id="mask2_653_414" style="mask-type:luminance" maskUnits="userSpaceOnUse" x="0" y="0" width="1200" height="1200">
<path d="M0 0H1200V1200H0V0Z" fill="white"/>
</mask>
<g mask="url(#mask2_653_414)">
<path d="M571.92 511.177C571.92 511.177 584.814 522.91 592.72 524.157C600.627 525.405 600.819 525.628 603.89 526.025C607.235 526.478 612.017 532.841 602.442 533.072C592.782 533.316 596.284 534.408 596.284 534.408C596.284 534.408 612.728 544.825 617.875 551.899C623.021 558.972 599.13 559.778 583.882 551.357C568.635 542.936 558.094 518.693 558.094 518.693L571.92 511.177Z" fill="#FB9490"/>
<path d="M564.669 537.678C562.735 538.686 561.213 538.919 561.213 538.919C561.213 538.919 514.053 505.746 500.778 465.487C500.052 463.291 498.98 461.011 498.89 458.528C497.89 424.994 501.592 407.072 501.592 407.072L546.349 386.841C562.641 417.365 540.906 459.82 540.906 459.82C540.906 459.82 543.803 485.091 575.14 512.998C579.485 527.915 570.234 534.765 564.669 537.678Z" fill="#EE5568"/>
<path d="M564.668 537.677C562.661 538.567 561.212 538.919 561.212 538.919C561.212 538.919 514.052 505.745 500.777 465.486C500.051 463.291 499.426 460.966 498.889 458.528L498.703 443.786L522.789 428.533L538.053 436.166C538.053 436.166 540.234 456.593 527.48 467.604L514.725 478.615C514.725 478.615 539.117 517.855 564.668 537.677Z" fill="#EB475C"/>
<path d="M552.518 922.55C552.518 922.55 556.357 951.544 553.072 965.02C550.224 977.053 545.874 987.021 553.197 988.869C587.207 995.452 651.311 995.342 651.311 995.342C651.311 995.342 657.736 990.662 649.958 981.623C642.179 972.583 601.953 960.2 596.119 953.421C590.286 946.642 587.909 924.701 587.909 924.701L552.518 922.55Z" fill="#1A1A1A"/>
<path d="M595.216 941.213C595.216 941.213 577.667 944.14 563.555 942.135C557.256 941.245 553.468 942.237 550.406 938.681C517.34 851.465 528.275 771.672 528.275 771.672C528.275 771.672 515.032 757.088 496.99 734.433C459.405 687.232 414.507 604.674 439.277 544.972C456.629 517.848 477.024 520.211 477.024 520.211L549.989 548.232C549.989 548.232 591.3 653.87 601.732 739.49C609.789 805.607 595.216 941.213 595.216 941.213Z" fill="#142A52"/>
<path d="M563.555 942.134C557.256 941.245 553.469 942.236 550.407 938.68C517.341 851.464 528.276 771.673 528.276 771.673C528.276 771.673 515.033 757.088 496.991 734.433C487.312 721.935 483.734 716.951 481.378 713.901C466.038 694.04 451.602 654.599 451.602 654.599L493.91 602.734C493.91 602.734 517.187 636.088 532.483 709.943C535.237 728.057 538.167 738.943 540.863 747.181L546.328 762.929C546.328 762.929 534.544 800.011 538.689 837.146C542.387 870.244 559.613 927.432 563.555 942.134Z" fill="#102040"/>
<path d="M417.354 921.949C417.312 921.965 412.5 955.5 410.789 962.222C407.437 975.393 400.75 979.249 405.15 987.979C412.25 992.249 440.762 992.645 466.125 994.176C476.502 994.803 493.452 995.329 508.81 995.2C508.826 995.198 513.25 985.75 504.387 978.772C493.59 970.271 463.5 962.249 456.46 952.416C451.164 945.019 457.025 926.736 457.009 926.712C456.987 926.679 417.391 921.935 417.354 921.949Z" fill="#1A1A1A"/>
<path d="M530.769 722.779C530.769 791.763 457.123 941.454 457.123 941.454C457.123 941.454 435.5 940.5 416.442 935.216C413.173 934.31 410.081 933.036 407.107 931.96C407.107 878.712 447.939 725.323 447.939 725.323C447.939 725.323 437.999 686.5 420.258 615.796C401.662 541.687 448.622 490.608 448.622 490.608L531.334 543.731L533.118 544.897C533.118 544.897 530.769 653.799 530.769 722.779Z" fill="#142A52"/>
<path d="M435.103 533.165C435.103 533.165 425.157 578.106 437.2 621.809C448 661 455.171 680.563 461.012 702.353C464 713.5 474.959 730.492 475.291 730.43C474.504 730.914 447 780.5 434.366 835.587C424.087 880.407 421.155 922.729 416.441 935.216C413.229 934.129 410.082 933.037 407.108 931.96C407.108 878.712 447.938 725.324 447.938 725.324C447.938 725.324 438 685.5 420.259 615.796C401.413 541.751 448.622 490.608 448.622 490.608L531.334 543.731L522.547 550.488C522.547 550.488 478.256 566.814 457.929 546.488L435.103 533.165Z" fill="#102040"/>
<path d="M578.918 493.211C576.73 501.243 573.634 508.91 569.548 515.855C564.616 524.234 549.395 549.913 541.751 556.001C507.153 583.563 426.574 503.274 426.574 503.274C426.574 503.274 474.679 423.096 479.606 403.622C484.532 384.149 506.975 372.659 547.168 385.434C575.792 394.532 590.868 449.371 578.918 493.211Z" fill="#EE5568"/>
<path d="M561.684 570.894C561.684 570.894 573.799 580.097 584.255 578.93C594.713 577.763 595.682 581.961 593.306 582.89C590.932 583.82 584.732 586.841 584.732 586.841C584.732 586.841 592.489 595.713 603.524 595.92C614.561 596.127 616.202 604.891 612.521 607.045C608.84 609.201 591.661 617.945 576.756 609.369C561.852 600.793 560.902 592.164 552.271 586.332C543.641 580.499 561.684 570.894 561.684 570.894Z" fill="#FB9490"/>
<path d="M548.91 547.932C541.276 557.774 538.31 560.94 526.952 566.769L510.763 534.454L507.541 502.521C507.541 502.521 512.036 467.492 530.533 462.911C530.533 462.911 524.441 503.971 524.811 519.798C524.999 527.798 542.539 535.426 548.91 547.932Z" fill="#D13349"/>
<path d="M560.787 586.67C557.721 591.034 554.998 594.486 554.998 594.486C554.998 594.486 503.49 579.877 474.695 544.783C445.905 509.689 484.481 425.802 485.604 428.28L485.876 428.398L532.739 448.77C532.739 448.77 519.326 489.871 515.68 524.481C527.554 534.623 560.725 559.59 568.902 569.552C570.65 571.687 565.34 580.181 560.787 586.67Z" fill="#EE5568"/>
<path d="M560.787 586.67C557.721 591.034 554.998 594.486 554.998 594.486C554.998 594.486 503.49 579.877 474.695 544.783C445.905 509.689 484.481 425.802 485.604 428.28L485.876 428.398C481.844 443.18 466.6 503.642 478.998 531.02C491.788 559.252 546.292 580.522 560.787 586.67Z" fill="#EB475C"/>
<path d="M587.407 308.819C587.407 308.819 591.591 327.552 587.881 338.349C584.171 349.144 587.733 358.722 595.97 347.166C604.206 335.612 604.089 318.675 596.73 308.822C589.369 298.967 587.407 308.819 587.407 308.819Z" fill="#1A1A1A"/>
<path d="M579.394 373.798C572.542 383.041 557.191 375.119 556.842 374.94L556.838 374.938C556.838 374.938 556.822 376.566 556.563 378.955C555.893 385.216 553.565 396.708 545.504 397.873C534.367 399.481 520.247 382.624 523.549 376.059C531.07 361.112 533.487 342.678 537.203 322.177C540.925 301.679 560.574 293.199 582.951 302.073C605.326 310.944 586.328 364.452 579.394 373.798Z" fill="#FB9490"/>
<path d="M568.844 342.631C564.968 344.803 560.243 344.432 555.835 344.994C551.427 345.555 546.485 347.868 545.763 352.253C545.055 356.562 548.837 360.667 548.142 364.979C547.654 368.015 544.928 370.344 541.951 371.118C538.973 371.891 535.806 371.36 532.866 370.452C523.076 367.428 514.705 360.095 510.419 350.788C506.134 341.482 506.004 330.352 510.071 320.948C514.165 311.48 522.042 304.187 530.272 297.969C538.703 291.6 548.295 285.664 558.985 284.315C566.435 283.375 578.152 284.048 580.238 292.937C582.101 300.873 576.657 310.009 576.363 318.012C576.061 326.268 577.475 337.796 568.844 342.631Z" fill="#1A1A1A"/>
<path d="M574.878 298.397C574.878 298.397 571.99 307.707 585.086 312.599C598.182 317.491 604.75 322.347 596.728 308.822C588.707 295.297 579.61 289.704 574.878 298.397Z" fill="#1A1A1A"/>
<path d="M556.838 374.937C556.838 374.937 556.822 376.565 556.563 378.954C554.157 377.722 551.02 375.221 549.618 370.289L556.838 374.937Z" fill="#E8766E"/>
<path d="M849.166 654.048H731.325V594.759H849.166V654.048Z" fill="url(#paint8_linear_653_414)"/>
<path d="M890.303 664.117H698.322C695.104 664.117 692.494 661.508 692.494 658.29V657.567C692.494 654.349 695.104 651.741 698.322 651.741H890.303C893.521 651.741 896.13 654.349 896.13 657.567V658.29C896.13 661.508 893.521 664.117 890.303 664.117Z" fill="#1A1A1A"/>
<path d="M844.658 656.65L874.668 950.222H884.449L853.443 657.928L844.658 656.65Z" fill="#1A1A1A"/>
<path d="M743.967 656.65L713.957 950.222H704.177L735.181 657.928L743.967 656.65Z" fill="#1A1A1A"/>
<g opacity="0.5">
<path d="M849.166 594.758V654.047H759.027C759.027 654.047 773.109 639.336 806.828 637.013C831.38 635.32 836.817 608.965 837.963 594.758H849.166Z" fill="#142A52"/>
</g>
<path d="M850.345 599.411H730.324C727.84 599.411 725.826 597.397 725.826 594.914V594.356C725.826 591.873 727.84 589.859 730.324 589.859H850.345C852.828 589.859 854.842 591.873 854.842 594.356V594.914C854.842 597.397 852.828 599.411 850.345 599.411Z" fill="#1B51C5"/>
</g>
</g>
</g>
<defs>
<linearGradient id="paint0_linear_653_414" x1="301.216" y1="296.482" x2="393.701" y2="296.482" gradientUnits="userSpaceOnUse">
<stop stop-color="#68B2FC"/>
<stop offset="0.5" stop-color="#5DA7F9"/>
<stop offset="1" stop-color="#529BF7"/>
</linearGradient>
<linearGradient id="paint1_linear_653_414" x1="429.435" y1="217.313" x2="483.157" y2="217.313" gradientUnits="userSpaceOnUse">
<stop stop-color="#68B2FC"/>
<stop offset="0.5" stop-color="#5DA7F9"/>
<stop offset="1" stop-color="#529BF7"/>
</linearGradient>
<linearGradient id="paint2_linear_653_414" x1="930.928" y1="354.058" x2="524.928" y2="356.058" gradientUnits="userSpaceOnUse">
<stop stop-color="#68B2FC"/>
<stop offset="0.5" stop-color="#B4D8FD"/>
<stop offset="1" stop-color="white"/>
</linearGradient>
<linearGradient id="paint3_linear_653_414" x1="680.928" y1="205.053" x2="780.928" y2="205.053" gradientUnits="userSpaceOnUse">
<stop stop-color="#68B2FC"/>
<stop offset="0.5" stop-color="#5DA7F9"/>
<stop offset="1" stop-color="#529BF7"/>
</linearGradient>
<linearGradient id="paint4_linear_653_414" x1="562.887" y1="629.141" x2="564.887" y2="1073.14" gradientUnits="userSpaceOnUse">
<stop stop-color="#68B2FC"/>
<stop offset="0.5" stop-color="#B4D8FD"/>
<stop offset="1" stop-color="white"/>
</linearGradient>
<linearGradient id="paint5_linear_653_414" x1="170.797" y1="974.451" x2="1055.8" y2="974.451" gradientUnits="userSpaceOnUse">
<stop stop-color="#68B2FC"/>
<stop offset="0.5" stop-color="#5DA7F9"/>
<stop offset="1" stop-color="#529BF7"/>
</linearGradient>
<linearGradient id="paint6_linear_653_414" x1="1029.54" y1="659.741" x2="840.544" y2="829.741" gradientUnits="userSpaceOnUse">
<stop stop-color="#68B2FC"/>
<stop offset="0.5" stop-color="#B4D8FD"/>
<stop offset="1" stop-color="white"/>
</linearGradient>
<linearGradient id="paint7_linear_653_414" x1="103.415" y1="733.282" x2="203.915" y2="840.282" gradientUnits="userSpaceOnUse">
<stop stop-color="#68B2FC"/>
<stop offset="0.5" stop-color="#B4D8FD"/>
<stop offset="1" stop-color="white"/>
</linearGradient>
<linearGradient id="paint8_linear_653_414" x1="731.245" y1="624.403" x2="851.745" y2="624.403" gradientUnits="userSpaceOnUse">
<stop stop-color="#68B2FC"/>
<stop offset="0.5" stop-color="#5DA7F9"/>
<stop offset="1" stop-color="#529BF7"/>
</linearGradient>
<clipPath id="clip0_653_414">
<rect width="1200" height="1200" fill="white"/>
</clipPath>
</defs>
</svg>
